<?xml version="1.0" encoding="UTF-8"?><svg id="HOME" xmlns="http://www.w3.org/2000/svg" viewBox="0 0 250 250"><defs><style>.cls-1,.cls-2{fill:#fff;}.cls-2{fill-rule:evenodd;}.cls-3{fill:#fded00;}</style></defs><g id="logosinstitucionales_img"><path class="cls-1" d="M140.55,136.09c0,.87,.16,1.56,.48,2.07,.32,.51,.76,.77,1.32,.77s.98-.25,1.3-.76c.32-.51,.48-1.2,.48-2.07s-.16-1.52-.47-2.01c-.32-.49-.75-.74-1.31-.74s-1,.25-1.32,.74c-.32,.49-.48,1.16-.48,2m-1.39,0c0-1.19,.29-2.16,.87-2.91,.58-.75,1.35-1.13,2.32-1.13s1.74,.38,2.32,1.13c.58,.75,.87,1.73,.87,2.92s-.29,2.22-.87,2.99c-.58,.77-1.35,1.15-2.32,1.15s-1.75-.38-2.33-1.15c-.57-.77-.86-1.77-.86-3Zm-2.38-4.04c.79,0,1.43,.22,1.93,.66l-.57,1.17c-.13-.16-.33-.29-.58-.39-.25-.1-.5-.16-.74-.16-.66,0-1.18,.26-1.56,.78-.37,.53-.56,1.18-.56,1.96s.19,1.48,.57,2.04c.39,.56,.9,.84,1.53,.84,.51,0,1-.19,1.47-.58l.56,1.15c-.57,.48-1.28,.71-2.13,.71-1.05,0-1.88-.38-2.49-1.15-.6-.77-.9-1.75-.9-2.96s.31-2.18,.93-2.94c.62-.76,1.47-1.14,2.54-1.14Zm-4.56,8.05h-1.36v-7.92h1.36v7.92Zm-2.2,0h-3.92v-7.92h1.36v6.71h2.55v1.2Zm-8.2-3.55v2.34h.8c.33,0,.59-.1,.76-.31,.17-.2,.26-.49,.26-.85s-.08-.64-.23-.86c-.16-.22-.36-.32-.62-.32h-.96Zm0-3.17v2.04h.84c.22,0,.4-.1,.54-.3,.13-.2,.2-.44,.2-.74s-.07-.56-.22-.74c-.15-.18-.35-.27-.61-.27h-.74Zm.83,6.71h-2.19v-7.92h2.14c.65,0,1.18,.18,1.58,.55,.4,.36,.6,.86,.6,1.49,0,.37-.08,.71-.25,1.01-.16,.3-.39,.53-.68,.69v.02c.38,.13,.67,.36,.88,.69,.2,.33,.31,.73,.31,1.18,0,.75-.21,1.32-.63,1.71-.42,.39-1.01,.58-1.76,.58Zm-5.64-8.44h-1.05l.68-1.53h1.34l-.97,1.53Zm-2.97,5.89v-5.36h1.35v5.35c0,.96,.39,1.44,1.17,1.44s1.17-.48,1.17-1.44v-5.35h1.36v5.36c0,.83-.23,1.48-.69,1.96-.46,.48-1.07,.73-1.83,.73s-1.4-.24-1.85-.71c-.45-.48-.68-1.13-.68-1.97Zm-4.12-4.16v2.78h.66c.36,0,.65-.13,.87-.38,.22-.25,.32-.59,.32-1.01s-.11-.75-.33-1c-.22-.25-.5-.38-.84-.38h-.68Zm0,6.71h-1.36v-7.92h2.25c.68,0,1.25,.24,1.68,.73,.44,.48,.66,1.1,.66,1.86s-.22,1.39-.66,1.87c-.44,.48-1,.73-1.68,.73h-.89v2.73Zm-9.65-4.01c0,.87,.16,1.56,.48,2.07,.32,.51,.76,.77,1.32,.77s.99-.25,1.3-.76c.32-.51,.48-1.2,.48-2.07s-.16-1.52-.47-2.01c-.32-.49-.75-.74-1.31-.74s-1,.25-1.32,.74c-.32,.49-.48,1.16-.48,2Zm-1.39,0c0-1.19,.29-2.16,.87-2.91,.58-.75,1.35-1.13,2.32-1.13s1.74,.38,2.32,1.13c.58,.75,.87,1.73,.87,2.92s-.29,2.22-.87,2.99c-.58,.77-1.35,1.15-2.32,1.15s-1.75-.38-2.33-1.15c-.57-.77-.86-1.77-.86-3Zm-1.09,4.01h-1.36v-7.92h1.36v7.92Zm-4.29-8.05c.79,0,1.43,.22,1.93,.66l-.57,1.17c-.13-.16-.33-.29-.58-.39-.25-.1-.5-.16-.74-.16-.66,0-1.18,.26-1.56,.78-.37,.53-.56,1.18-.56,1.96s.19,1.48,.57,2.04c.39,.56,.9,.84,1.53,.84,.51,0,1-.19,1.47-.58l.56,1.15c-.57,.48-1.28,.71-2.13,.71-1.05,0-1.88-.38-2.49-1.15-.6-.77-.9-1.75-.9-2.96s.31-2.18,.93-2.94c.62-.76,1.47-1.14,2.54-1.14Zm-6.8,2.74l-.51,2.13h1.51l-.5-2.13-.23-1.23h-.03c-.07,.47-.15,.88-.22,1.23Zm-1.22,5.31h-1.36l2.07-7.92h1.47l2.09,7.92h-1.36l-.49-2.04h-1.94l-.48,2.04Zm-4.48-6.71v2.78h.66c.36,0,.65-.13,.87-.38,.22-.25,.32-.59,.32-1.01s-.11-.75-.33-1c-.22-.25-.5-.38-.84-.38h-.68Zm0,6.71h-1.36v-7.92h2.25c.68,0,1.25,.24,1.68,.73,.44,.48,.66,1.1,.66,1.86s-.22,1.39-.66,1.87c-.44,.48-1,.73-1.68,.73h-.89v2.73Zm-6.76-.64l.64-1.16c.41,.45,.87,.67,1.37,.67,.29,0,.52-.09,.7-.27,.18-.18,.27-.42,.27-.71,0-.19-.05-.37-.16-.54-.1-.16-.24-.31-.4-.43-.16-.12-.34-.25-.54-.37-.2-.12-.39-.26-.59-.4-.2-.15-.38-.3-.54-.47-.16-.17-.3-.38-.4-.64-.1-.25-.16-.54-.16-.85,0-.65,.21-1.19,.64-1.62,.42-.42,1-.64,1.72-.64,.66,0,1.25,.17,1.75,.52l-.49,1.2c-.14-.12-.33-.22-.58-.32-.25-.09-.46-.14-.66-.14-.32,0-.57,.09-.75,.27-.18,.18-.27,.41-.27,.7,0,.45,.33,.87,.98,1.25,.26,.14,.47,.27,.64,.38,.16,.11,.35,.27,.56,.46,.21,.2,.36,.43,.47,.69s.16,.55,.16,.87c0,.65-.2,1.2-.6,1.64-.4,.44-.97,.66-1.7,.66-.8,0-1.49-.26-2.05-.77Zm-.56,.64h-3.9v-7.92h3.77v1.21h-2.41v2.12h1.94v1.2h-1.94v2.19h2.54v1.2Z"/><path class="cls-1" d="M23.93,136.73l-.33-.89-.33,.89h.66Zm.9,.96h-.53l-.21-.55h-.97l-.2,.55h-.52l.94-2.42h.52l.97,2.42Z"/><polygon class="cls-1" points="24.96 137.69 24.96 135.29 25.45 135.29 25.45 137.28 26.66 137.28 26.66 137.69 24.96 137.69"/><path class="cls-1" d="M28.3,136.8l.47,.15c-.07,.26-.19,.46-.36,.59-.17,.13-.38,.19-.64,.19-.32,0-.59-.11-.79-.33-.21-.22-.31-.52-.31-.9,0-.4,.1-.71,.31-.94,.21-.22,.48-.33,.82-.33,.3,0,.54,.09,.72,.26,.11,.1,.19,.25,.25,.45l-.49,.12c-.03-.12-.09-.22-.18-.3-.09-.07-.2-.11-.33-.11-.18,0-.33,.06-.44,.19-.11,.13-.17,.34-.17,.62,0,.31,.06,.52,.17,.65,.11,.13,.25,.2,.43,.2,.13,0,.24-.04,.34-.13,.09-.08,.16-.21,.2-.39"/><path class="cls-1" d="M30.31,136.73l-.33-.89-.33,.89h.66Zm.9,.96h-.53l-.21-.55h-.97l-.2,.55h-.52l.94-2.42h.52l.97,2.42Z"/><polygon class="cls-1" points="31.38 137.69 31.38 135.29 31.87 135.29 31.87 137.28 33.09 137.28 33.09 137.69 31.38 137.69"/><path class="cls-1" d="M33.77,135.68v1.6h.37c.14,0,.23,0,.3-.02,.08-.02,.15-.05,.2-.1,.05-.05,.09-.13,.13-.23,.03-.11,.05-.25,.05-.44s-.02-.33-.05-.43c-.03-.1-.08-.18-.14-.23-.06-.05-.14-.09-.23-.11-.07-.01-.2-.02-.4-.02h-.22Zm-.49-.41h.89c.2,0,.36,.01,.46,.05,.14,.04,.26,.12,.36,.22,.1,.11,.18,.24,.23,.39,.05,.16,.08,.35,.08,.57,0,.2-.02,.37-.07,.52-.06,.18-.15,.32-.26,.43-.08,.08-.2,.15-.34,.19-.11,.03-.25,.05-.43,.05h-.92v-2.42Z"/><path class="cls-1" d="M35.53,135.27h.49v2.42h-.49v-2.42Zm.12-.22l.23-.49h.52l-.45,.49h-.29Z"/><path class="cls-1" d="M37.78,136.73l-.34-.89-.33,.89h.66Zm.9,.96h-.53l-.21-.55h-.97l-.2,.55h-.52l.94-2.42h.52l.97,2.42Z"/><polygon class="cls-1" points="39.82 137.69 39.82 135.27 40.55 135.27 40.99 136.93 41.43 135.27 42.16 135.27 42.16 137.69 41.71 137.69 41.71 135.79 41.23 137.69 40.75 137.69 40.28 135.79 40.28 137.69 39.82 137.69"/><path class="cls-1" d="M43.87,136.73l-.33-.89-.33,.89h.66Zm.9,.96h-.53l-.21-.55h-.97l-.2,.55h-.52l.94-2.42h.52l.97,2.42Z"/><polygon class="cls-1" points="45.06 137.69 45.06 136.68 44.17 135.27 44.74 135.27 45.32 136.23 45.87 135.27 46.44 135.27 45.55 136.68 45.55 137.69 45.06 137.69"/><path class="cls-1" d="M46.73,136.48c0,.27,.06,.48,.19,.62,.13,.14,.29,.21,.48,.21s.35-.07,.48-.21c.13-.14,.19-.35,.19-.63s-.06-.48-.18-.62c-.12-.14-.28-.2-.48-.2s-.36,.07-.49,.21c-.12,.14-.18,.35-.18,.62m-.5,.02c0-.25,.04-.45,.11-.62,.06-.12,.13-.24,.22-.33,.1-.1,.2-.17,.31-.22,.15-.06,.32-.09,.52-.09,.36,0,.64,.11,.86,.33,.21,.22,.32,.53,.32,.92s-.11,.7-.32,.92c-.21,.22-.5,.33-.85,.33s-.64-.11-.86-.33c-.21-.22-.32-.52-.32-.91Z"/><path class="cls-1" d="M49.23,136.3h.36c.24,0,.38-.01,.44-.03,.06-.02,.1-.06,.14-.1,.03-.05,.05-.11,.05-.18,0-.08-.02-.15-.07-.2-.04-.05-.1-.08-.18-.1-.04,0-.16,0-.36,0h-.38v.61Zm-.49,1.4v-2.42h1.03c.26,0,.45,.02,.56,.07,.12,.04,.21,.12,.28,.23,.07,.11,.11,.24,.11,.38,0,.18-.05,.33-.16,.45-.11,.12-.26,.19-.48,.22,.1,.06,.19,.13,.26,.2,.07,.07,.16,.2,.28,.39l.3,.47h-.59l-.35-.53c-.13-.19-.21-.31-.26-.36-.05-.05-.1-.08-.15-.1-.06-.02-.14-.03-.25-.03h-.1v1.01h-.49Z"/><rect class="cls-1" x="46.04" y="141.15" width=".45" height=".46"/><path class="cls-1" d="M24.61,139.63v1.57h.36c.13,0,.23,0,.29-.02,.08-.02,.14-.05,.19-.1,.05-.05,.09-.12,.13-.23,.03-.11,.05-.25,.05-.44s-.02-.32-.05-.42c-.03-.1-.08-.18-.14-.23-.06-.06-.13-.09-.22-.11-.07-.01-.2-.02-.39-.02h-.22Zm-.48-.4h.88c.2,0,.35,.02,.45,.05,.14,.04,.26,.11,.36,.22,.1,.1,.17,.23,.23,.39,.05,.15,.08,.34,.08,.56,0,.2-.03,.37-.07,.51-.06,.17-.14,.31-.26,.42-.08,.08-.2,.15-.34,.19-.11,.03-.25,.05-.42,.05h-.91v-2.38Z"/><polygon class="cls-1" points="26.28 141.6 26.28 139.22 28.04 139.22 28.04 139.63 26.76 139.63 26.76 140.15 27.95 140.15 27.95 140.56 26.76 140.56 26.76 141.2 28.09 141.2 28.09 141.6 26.28 141.6"/><path class="cls-1" d="M29.73,140.56v.63h.44c.17,0,.28,0,.33-.01,.07-.01,.13-.04,.18-.09,.04-.05,.07-.12,.07-.2,0-.07-.02-.13-.05-.18-.04-.05-.08-.09-.15-.11-.07-.02-.21-.03-.43-.03h-.39Zm0-.95v.55h.31c.19,0,.3,0,.35,0,.08,0,.15-.04,.19-.08,.05-.05,.07-.11,.07-.19s-.02-.13-.06-.18c-.04-.05-.1-.07-.18-.08-.05,0-.18,0-.41,0h-.27Zm-.48-.4h.95c.19,0,.33,0,.42,.02,.09,.02,.17,.05,.25,.1,.07,.05,.13,.12,.18,.2,.05,.08,.07,.18,.07,.28,0,.11-.03,.21-.09,.31-.06,.09-.14,.16-.24,.21,.14,.04,.25,.12,.33,.21,.08,.1,.12,.22,.12,.36,0,.11-.03,.21-.08,.32-.05,.1-.12,.18-.21,.24-.09,.06-.2,.1-.32,.11-.08,0-.27,.01-.58,.01h-.81v-2.38Z"/><path class="cls-1" d="M31.91,140.41c0,.27,.06,.47,.19,.61,.12,.14,.28,.21,.47,.21s.35-.07,.47-.21c.12-.14,.18-.35,.18-.62s-.06-.48-.18-.61c-.12-.13-.28-.2-.48-.2s-.36,.07-.48,.2c-.12,.14-.18,.34-.18,.61m-.5,.02c0-.24,.04-.44,.11-.61,.05-.12,.13-.23,.22-.33,.09-.09,.2-.17,.31-.21,.15-.06,.32-.09,.51-.09,.35,0,.63,.11,.84,.33,.21,.22,.31,.52,.31,.91s-.1,.68-.31,.9c-.21,.22-.49,.33-.84,.33s-.63-.11-.84-.32c-.21-.21-.31-.51-.31-.89Z"/><path class="cls-1" d="M35.13,140.73v-.4h1.04v.95c-.1,.1-.25,.18-.44,.26-.19,.07-.38,.11-.58,.11-.25,0-.46-.05-.65-.16-.19-.1-.32-.25-.42-.45-.09-.2-.14-.4-.14-.63,0-.25,.05-.47,.16-.66,.1-.19,.26-.34,.45-.45,.15-.08,.34-.12,.57-.12,.3,0,.53,.06,.69,.19,.16,.12,.27,.3,.32,.51l-.48,.09c-.03-.12-.1-.21-.19-.28-.09-.07-.21-.1-.35-.1-.21,0-.38,.07-.5,.2-.13,.13-.19,.33-.19,.59,0,.28,.06,.49,.19,.63,.12,.14,.29,.21,.49,.21,.1,0,.2-.02,.3-.06,.1-.04,.19-.09,.26-.14v-.3h-.55Z"/><path class="cls-1" d="M36.87,140.41c0,.27,.06,.47,.19,.61,.12,.14,.28,.21,.47,.21s.35-.07,.47-.21c.12-.14,.18-.35,.18-.62s-.06-.48-.18-.61c-.12-.13-.28-.2-.48-.2s-.36,.07-.48,.2c-.12,.14-.18,.34-.18,.61m-.5,.02c0-.24,.04-.44,.11-.61,.05-.12,.13-.23,.22-.33,.09-.09,.2-.17,.31-.21,.15-.06,.32-.09,.51-.09,.35,0,.63,.11,.84,.33,.21,.22,.31,.52,.31,.91s-.11,.68-.31,.9c-.21,.22-.49,.33-.84,.33s-.64-.11-.84-.32c-.21-.21-.31-.51-.31-.89Z"/><polygon class="cls-1" points="39.39 141.6 39.39 139.63 38.68 139.63 38.68 139.22 40.57 139.22 40.57 139.63 39.87 139.63 39.87 141.6 39.39 141.6"/><path class="cls-1" d="M41.35,139.01l.22-.48h.51l-.45,.48h-.29Zm.5,1.65l-.33-.88-.32,.88h.65Zm.89,.95h-.53l-.21-.54h-.95l-.2,.54h-.51l.93-2.38h.51l.95,2.38Z"/><path class="cls-1" d="M44.53,139.63v1.57h.36c.13,0,.23,0,.29-.02,.08-.02,.14-.05,.19-.1,.05-.05,.09-.12,.12-.23,.03-.11,.05-.25,.05-.44s-.01-.32-.05-.42c-.03-.1-.08-.18-.14-.23-.06-.06-.13-.09-.22-.11-.07-.01-.2-.02-.4-.02h-.22Zm-.48-.4h.88c.2,0,.35,.02,.45,.05,.14,.04,.26,.11,.36,.22,.1,.1,.18,.23,.23,.39,.05,.15,.08,.34,.08,.56,0,.2-.02,.37-.07,.51-.06,.17-.15,.31-.26,.42-.08,.08-.2,.15-.34,.19-.11,.03-.25,.05-.43,.05h-.91v-2.38Z"/><path class="cls-1" d="M48.15,140.72l.46,.15c-.07,.26-.19,.45-.36,.58-.17,.13-.38,.19-.63,.19-.32,0-.57-.11-.78-.32-.21-.22-.31-.51-.31-.89,0-.39,.1-.7,.31-.92,.2-.22,.47-.33,.81-.33,.29,0,.53,.09,.71,.26,.11,.1,.19,.25,.24,.44l-.47,.11c-.03-.12-.09-.22-.18-.29-.09-.07-.2-.11-.32-.11-.18,0-.32,.06-.43,.19-.11,.13-.16,.33-.16,.62,0,.3,.05,.51,.16,.64,.11,.13,.25,.19,.42,.19,.13,0,.24-.04,.33-.12,.09-.08,.16-.21,.2-.38"/><rect class="cls-1" x="48.69" y="141.16" width=".46" height=".45"/><path class="cls-1" d="M30.98,126.96c0,1.22,.93,2.22,2.22,2.22s2.29,.14,3.38,.82c1.08-.68,2.11-.82,3.35-.82s2.38-1,2.38-2.22v-10.26c-1.37,.72-4.34,.25-5.66-.44-1.31,.68-4.31,1.17-5.67,.44v10.26Zm12.54,2.15c-.24,.33-.52,.42-.69,.31-.19-.1-.24-.4,0-.73,.24-.33,.59-.5,.76-.4,.17,.1,.17,.48-.06,.82Zm.09-.86c-.44-.27-.98-.23-1.19,.1-.23,.32-.08,.8,.32,1.07-.3,.01-.69-.36-.69-.36-.2,.35,.26,.53,.5,.59-.07,.13-.19,.22-.56,.41-.56,.27-.99,.92-1.08,1.29l.45-.02c.05-.26,.14-.45,.25-.6,.16,.13,.35,.21,.57,.23,.26,.02,.48-.08,.63-.23-.17-.17-.39-.29-.65-.29-.1,0-.2,0-.29,.02,.32-.24,.68-.33,.91-.66,.5,.54,.74,.12,.74,.12-.16-.06-.5-.15-.67-.42,.44,.25,.92,.17,1.15-.14,.22-.33,.04-.84-.39-1.11Zm-7.35,2.99c-.04,.21-.33,.36-.74,.27-.41-.08-.69-.35-.65-.54,.04-.19,.41-.29,.84-.23,.41,.08,.58,.31,.54,.5Zm1.06-.08c-.39,.11-.54,.11-.69,.07,.11-.21,.29-.63-.11-.74,0,0,.02,.52-.2,.71,.07-.47-.17-.88-.56-.98-.41-.08-.82,.25-.93,.75-.09,.48,.15,.94,.56,1.04,.4,.08,.79-.23,.9-.68,.08,.3-.1,.59-.16,.74,0,0,.49,.15,.45-.57,.39,.07,.72-.11,1.12-.15-.08,.04-.16,.09-.23,.16-.15,.19-.24,.44-.24,.67,.22,0,.44-.08,.61-.27,.15-.14,.23-.35,.24-.55,.19,.03,.39,.11,.63,.25l.35-.29c-.33-.21-1.13-.35-1.73-.17Zm-2.58-.36c-.11-.02-.28-.23-.15-.4l-.07-.04s-.22,.19-.11,.38c0,0-.35,0-.37,.04-.02,.06,.33,.21,.33,.21-.17,.13-.07,.38-.07,.38h.07c-.04-.21,.19-.34,.32-.31,.05,.02,.11-.23,.05-.25Zm-4.26-1.38c-.17,.11-.46,.02-.69-.31-.24-.33-.24-.71-.07-.82,.18-.1,.52,.06,.76,.4,.22,.34,.17,.63,0,.73Zm.84,.65c-.37-.18-.49-.28-.56-.41,.23-.07,.69-.25,.5-.59,0,0-.41,.39-.71,.36,.42-.28,.57-.75,.34-1.07-.22-.33-.76-.38-1.19-.1-.43,.27-.61,.77-.39,1.11,.23,.33,.73,.39,1.16,.13-.17,.28-.52,.38-.68,.44,0,0,.25,.42,.75-.12,.22,.33,.59,.42,.9,.66-.09-.02-.18-.03-.29-.02-.26,0-.5,.12-.65,.29,.13,.15,.37,.25,.63,.23,.2-.02,.41-.1,.57-.23,.1,.15,.19,.34,.25,.6l.46,.02c-.09-.38-.52-1.02-1.08-1.29Zm-1.8-1.84s.26-.1,.22-.15c-.06-.11-.02-.36,.2-.4l-.02-.06s-.28,0-.35,.19c0,0-.24-.25-.3-.21-.06,.04,.09,.36,.09,.36-.22-.04-.32,.23-.32,.23l.04,.04c.13-.19,.39-.1,.46,0Zm13.63-5.27c.02-.42,.26-.73,.48-.71,.19,.02,.37,.36,.34,.77-.02,.4-.24,.61-.46,.58-.19-.02-.39-.25-.37-.65Zm-13.81,.06c-.02-.42,.13-.75,.32-.77,.22-.02,.46,.29,.48,.71,.02,.4-.15,.62-.37,.65-.19,.02-.41-.19-.43-.58Zm.13,3.24l.35-.27c-.5-1.04,.23-1.4,.16-2.05,.74,.15,.68-.33,.68-.33-.18,.04-.51,.17-.81,.04,.49-.04,.85-.39,.83-.77-.04-.4-.5-.69-1.02-.67-.52,.04-.91,.4-.89,.79,.04,.38,.46,.66,.95,.65-.23,.19-.8,.1-.8,.1,.06,.4,.54,.29,.77,.2,.02,.14-.01,.28-.19,.65-.03,.06-.06,.13-.08,.2-.02-.13-.09-.27-.23-.37-.17-.17-.41-.25-.65-.23-.04,.19,.02,.4,.2,.57,.16,.15,.4,.24,.62,.23-.1,.47-.04,.99,.09,1.25Zm.67-4.41l.02-.06s-.26-.15-.39-.02c0,0-.11-.33-.17-.31-.07,0-.11,.33-.11,.33-.17-.13-.39,.04-.39,.04l.02,.06c.19-.08,.39,.1,.39,.21,.02,.06,.28,.04,.28-.02-.02-.1,.15-.31,.35-.23Zm13.64,.25c0-.11,.19-.29,.39-.21l.02-.06s-.22-.17-.39-.04c0,0-.04-.33-.11-.33-.06-.02-.17,.31-.17,.31-.13-.12-.39,.02-.39,.02l.02,.06c.19-.08,.37,.13,.35,.23,0,.06,.28,.08,.28,.02Zm-.16-6c.22-.02,.45,.29,.48,.71,.02,.4-.17,.63-.37,.65-.22,.02-.44-.19-.46-.58-.02-.42,.15-.75,.35-.77Zm.04,1.42c-.25,.17-.78,.08-.78,.08,.06,.4,.54,.29,.77,.2,.02,.14-.01,.29-.19,.66-.28,.54-.21,1.32-.04,1.65l.35-.27c-.12-.25-.17-.45-.18-.64,.21,.02,.43-.03,.62-.16,.19-.13,.32-.33,.34-.52-.24-.04-.5,0-.71,.12-.09,.06-.16,.13-.22,.2,.09-.39,.34-.68,.31-1.07,.74,.16,.69-.33,.69-.33-.17,.04-.48,.16-.78,.05,.47-.07,.82-.41,.8-.78-.04-.4-.5-.69-1.02-.65-.52,.02-.91,.37-.89,.77,.04,.37,.45,.66,.93,.67Zm-.19-1.57c0,.06,.28,.04,.28-.02-.02-.1,.15-.31,.35-.23l.02-.06s-.26-.15-.39-.02c0,0-.11-.33-.17-.31-.07,0-.11,.33-.11,.33-.17-.13-.39,.06-.39,.06l.02,.04c.19-.08,.39,.11,.39,.21Zm-13.79,.15c.2,.02,.35,.35,.32,.77-.02,.4-.24,.61-.43,.59-.22-.02-.39-.25-.37-.65,.02-.42,.26-.73,.48-.71Zm-.22,1.41c-.29,.1-.6-.02-.78-.05,0,0-.06,.48,.68,.33-.04,.38,.19,.66,.3,1.04-.05-.07-.12-.12-.19-.18-.22-.12-.48-.17-.71-.12,.02,.19,.13,.39,.35,.52,.18,.12,.4,.17,.61,.16,0,.18-.06,.39-.17,.64l.35,.27c.17-.33,.22-1.11-.04-1.65-.18-.37-.21-.51-.19-.66,.24,.09,.71,.2,.78-.2,0,0-.53,.09-.78-.08,.48-.01,.89-.3,.93-.67,.02-.4-.37-.75-.89-.77-.52-.04-.98,.25-1.02,.65-.02,.37,.32,.71,.8,.78Zm.09-1.58c0,.06,.26,.08,.28,.02,0-.1,.19-.29,.39-.21l.02-.04s-.22-.19-.39-.06c0,0-.04-.33-.11-.33-.06-.02-.17,.31-.17,.31-.13-.13-.39,.02-.39,.02l.02,.06c.2-.08,.35,.13,.35,.23Zm4.46-.38c0-.19,.22-.4,.63-.42,.43,0,.78,.21,.78,.4-.02,.21-.35,.38-.76,.4-.43,.02-.67-.17-.65-.38Zm.72,.9c.41,0,.74-.42,.71-.92,0-.5-.35-.9-.78-.9-.39,0-.71,.38-.72,.85-.15-.28-.04-.61-.02-.77,0,0-.5-.02-.31,.68-.39,.01-.66,.26-1.04,.39,.07-.06,.13-.14,.17-.22,.13-.21,.15-.46,.09-.69-.22,.04-.41,.17-.52,.38-.11,.2-.14,.41-.11,.6-.19,0-.41-.02-.67-.12l-.26,.35c.37,.12,1.17,.12,1.71-.19,.34-.19,.5-.24,.64-.24-.06,.23-.13,.71,.27,.72,0,0-.13-.53,.04-.77,.02,.48,.36,.85,.78,.85Zm.84-.79c.13,0,.32,.17,.26,.38h.06s.15-.23,.02-.38c0,0,.35-.06,.35-.13s-.37-.13-.37-.13c.13-.15-.04-.38-.04-.38l-.07,.02c.11,.19-.11,.35-.21,.35-.06,0-.06,.25,0,.25Zm1.78,0c-.13,.15,.02,.38,.02,.38h.06c-.06-.21,.13-.38,.26-.38,.06,0,.06-.25,0-.25-.11,0-.33-.17-.22-.35l-.07-.02s-.17,.23-.04,.38c0,0-.37,.06-.37,.13s.35,.13,.35,.13Zm1.26,.27c-.41-.02-.74-.19-.75-.4,0-.19,.35-.4,.78-.4,.41,.02,.63,.23,.63,.42,.02,.21-.22,.4-.65,.38Zm3.38,.15l-.26-.36c-.26,.1-.48,.13-.67,.12,.03-.19,0-.4-.11-.6-.11-.21-.31-.34-.52-.38-.07,.23-.05,.48,.09,.69,.05,.09,.1,.16,.18,.22-.38-.12-.65-.37-1.04-.39,.19-.69-.31-.68-.31-.68,.02,.16,.13,.49-.02,.77,0-.47-.32-.85-.72-.85-.43,0-.78,.4-.78,.9-.02,.5,.3,.92,.71,.92s.76-.37,.78-.85c.18,.24,.04,.77,.04,.77,.4-.02,.33-.5,.27-.72,.14,0,.29,.05,.64,.24,.54,.31,1.34,.31,1.71,.19Zm2.77,8.12c-.26-.02-.5,.06-.67,.23-.12,.1-.19,.23-.22,.37-.02-.07-.05-.13-.09-.2-.18-.37-.21-.51-.19-.65,.24,.08,.71,.2,.78-.2,0,0-.57,.09-.8-.1,.49,.01,.91-.27,.95-.65,.02-.4-.37-.75-.89-.79-.52-.02-.98,.27-1.02,.67-.02,.38,.34,.72,.83,.77-.3,.13-.63,0-.79-.04,0,0-.08,.48,.66,.33-.04,.65,.68,1.02,.16,2.06l.34,.27c.13-.26,.2-.78,.1-1.25,.22,0,.46-.08,.62-.23,.17-.17,.24-.38,.22-.57Zm-.81,3.74s.13-.31,.09-.36c-.07-.04-.3,.21-.3,.21-.07-.19-.35-.19-.35-.19l-.02,.06c.22,.04,.24,.29,.17,.4-.02,.04,.22,.19,.24,.14,.06-.1,.32-.19,.43,0l.06-.04s-.11-.27-.33-.23Zm-15.86-14.7c2.64,1.4,5.87,1.4,8.51,.02,2.67,1.37,5.86,1.39,8.51-.02v15.26c0,1.87-1.56,3.35-3.46,3.35s-3.46,.27-5.05,1.27c-1.59-1.01-3.22-1.27-5.07-1.27s-3.44-1.48-3.44-3.35v-15.26Z"/><path class="cls-1" d="M31.93,124.68c-.06-.1-.35-.19-.48,0l-.04-.04s.11-.29,.32-.25c0,0-.13-.35-.06-.4,.06-.02,.32,.25,.32,.25,.07-.21,.39-.21,.39-.21v.08c-.22,.02-.26,.31-.2,.42,.02,.06-.22,.21-.26,.15"/><path class="cls-1" d="M35.22,126.63c.02,.25-.04,.5-.24,.71-.17,.21-.41,.31-.65,.31-.02-.25,.07-.52,.24-.73,.2-.19,.43-.29,.65-.29"/><path class="cls-1" d="M41.25,124.68c.06-.1,.35-.19,.48,0l.04-.04s-.11-.29-.32-.25c0,0,.13-.35,.06-.4-.06-.02-.32,.25-.32,.25-.07-.21-.39-.21-.39-.21v.08c.22,.02,.26,.31,.2,.42-.02,.06,.22,.21,.26,.15"/><path class="cls-1" d="M37.95,126.63c-.03,.25,.04,.5,.24,.71,.17,.21,.41,.31,.65,.31,.02-.25-.06-.52-.24-.73-.2-.19-.43-.29-.65-.29"/><path class="cls-1" d="M37.31,124.13c-.36-.27,.04-.39,.14-.3,.89,.75,1.69,.23,1.69,.23-.63-.21-.93-.92-.93-.92,1.3,.75,2.3-.1,2.3-.1-.86,.15-1.54-.67-1.54-.67,1.34,.31,2.27-.58,2.27-.58-.5,.04-1.73-.48-1.73-.48,1.97-.06,2.14-1.46,2.17-1.46-.54,.36-1.99,.19-1.99,.19,2.06-.73,1.91-2.42,1.91-2.42-.44,.65-2.42,1.27-2.42,1.27-.54,.17-.98,.65-.98,1.21-.02,.23-.24,.42-.48,.42-.53,0-.52-.77-.52-1.13,0-.54-.02-1.17-.41-1.17h-.78c-.14,0-.38-.02-.48,.11-.2,.23-.17,.85-.08,.73,0,0,.3-.08,.5,0,.25,.07,.07,.85,.07,1.02,0,.23-.22,.44-.48,.44-.24,0-.46-.19-.48-.42,0-.56-.43-1.04-.95-1.21,0,0-2.04-.63-2.47-1.27,0,0-.15,1.71,1.93,2.47,0,0-1.47,.12-2.01-.23,.02,0,.28,1.46,2.25,1.53,0,0-1.3,.44-1.78,.38,0,0,.93,1.07,2.32,.75,0,0-.76,.69-1.63,.54,0,0,.98,.88,2.3,.15,0,0-.28,.67-.91,.88,0,0,.8,.52,1.71-.23,.12-.13,.49,.02,.12,.3-.5,.38-1.2,.47-1.5,1.1l.37,.07c-.41,.42-.96,1-1.02,1.02,0,0-.13-.19-.54,.02-.22,.11-.33,.38-.17,.48,0,0-.07,.33,.32,.31,0,0,.15,.27,.48,.06,.3-.21-.02-.15-.07-.23-.04-.06,.02-.04,.02-.04,.15-.02,.35-.19,.22-.34-.01-.03,.7-.47,1.23-.8l.07,.34c.18-.24,.45-.41,.75-.5-.33,.45-.52,.96-.41,1.67,0,0,.09-.27,.52-.32,0,0-.61,.73,.37,2.15,.97-1.42,.41-2.15,.41-2.15,.43,.04,.54,.32,.54,.32,.1-.72-.09-1.24-.43-1.68,.31,.09,.56,.26,.76,.51l.07-.35c.52,.32,1.24,.78,1.23,.81-.13,.15,.08,.31,.21,.34,0,0,.04-.02,.02,.04-.04,.08-.37,.02-.07,.23,.3,.21,.48-.06,.48-.06,.39,.02,.33-.31,.33-.31,.15-.11,.04-.38-.2-.48-.41-.21-.54-.02-.54-.02-.04-.01-.59-.6-.99-1.02l.36-.07c-.26-.6-.96-.73-1.44-1.1m-.25-6.11l.43-.67-.67,.25-.24-.6-.26,.6-.69-.25,.45,.67h.98Zm-1,.63c0-.13,.09-.21,.22-.21,.11,0,.2,.08,.2,.21,0,.1-.09,.19-.2,.19-.13,0-.22-.08-.22-.19Z"/><path class="cls-2" d="M40.98,125.6c.24-.38,.24-.79,.04-.9-.19-.11-.56,.08-.8,.46-.26,.36-.2,.67,0,.77,.19,.13,.5,.04,.76-.33m-1.76,2.76c.08-.44-.14-1.36,.9-2.05,.32,.37,.61,.51,.86,.17-.34-.09-.59-.24-.73-.44,.48,.23,.88,.22,1.18-.1,.28-.35,.16-.93-.38-1.28-.49-.32-1.03-.23-1.3,.15-.21,.35-.11,.83,.39,1.16-.19,.02-.43-.11-.74-.41-.14,.28,0,.48,.41,.62-.71,.49-1,1.27-1.08,2.2l.5-.02Z"/><path class="cls-2" d="M32.19,125.6c-.24-.38-.24-.79-.04-.9,.19-.11,.56,.08,.8,.46,.26,.36,.2,.67,0,.77-.19,.13-.5,.04-.76-.33m1.76,2.76c-.08-.44,.13-1.36-.9-2.05-.32,.37-.61,.51-.86,.17,.34-.09,.59-.24,.73-.44-.48,.23-.88,.22-1.18-.1-.28-.35-.16-.93,.38-1.28,.5-.32,1.03-.23,1.3,.15,.21,.35,.11,.83-.39,1.16,.19,.02,.43-.11,.74-.41,.14,.28,0,.48-.41,.62,.71,.49,1,1.27,1.08,2.2l-.5-.02Z"/><path class="cls-1" d="M169.84,125.99c0-1.8-1.48-3.27-3.29-3.27h-3.96v10.42h4.3c1.82,0,3.29-1.46,3.29-3.27,0-.8-.3-1.58-.84-2.18,.33-.51,.5-1.1,.5-1.71m-4.6-1h1.31c.56,0,1.02,.45,1.02,1s-.46,1-1.02,1h-1.31v-1.99Zm10.62-2.46c-2.9,0-5.26,2.45-5.26,5.45s2.36,5.45,5.26,5.45,5.26-2.44,5.26-5.45-2.36-5.45-5.26-5.45Zm0,8.07c-1.34,0-2.43-1.17-2.43-2.62s1.09-2.61,2.43-2.61,2.43,1.17,2.43,2.61-1.09,2.62-2.43,2.62Zm11.74-1.02h1.23v.57c-.46,.29-1,.45-1.55,.45-1.54,0-2.79-1.17-2.79-2.62s1.25-2.61,2.79-2.61c.73,0,1.42,.26,1.94,.74l.27,.25,1.91-2.09-.27-.25c-1.05-.96-2.42-1.49-3.86-1.49-3.1,0-5.62,2.45-5.62,5.45s2.52,5.45,5.62,5.45c.53,0,1.05-.07,1.55-.21v.02h2.83v-6.49h-4.07v2.83Zm14.6-4.17h0c-.89-1.72-2.63-2.88-4.63-2.88-2.9,0-5.26,2.45-5.26,5.45s2.36,5.45,5.26,5.45c2.9,0,5.26-2.44,5.26-5.45,0-.92-.22-1.8-.62-2.57Zm-4.64,5.19c-1.34,0-2.43-1.17-2.43-2.62s1.09-2.61,2.43-2.61,2.43,1.17,2.43,2.61-1.09,2.62-2.43,2.62Zm8.64-4.82v7.46h3.36v-7.46h3.17v-3.21h-9.71v3.21h3.18Zm21.4,11.92l-6.43-17.09h-5.77l-4.72,12.6h3.5l4.1-10.37,5.82,14.86h3.5Zm-60.71-6.83h-1.65v-2h1.65c.56,0,1.02,.45,1.02,1s-.46,1-1.02,1Z"/><polygon class="cls-3" points="222.64 115.08 225.8 113.79 221.6 112.29 218.92 105.11 216.13 110.4 210.45 109.23 214.46 113.57 212.5 118.83 219.56 116.3 224.71 120.62 222.64 115.08"/><polygon class="cls-3" points="210.9 115.37 212.19 114.54 210.64 114.21 210.2 112.67 209.58 113.98 207.24 113.48 209.07 115.37 208.51 116.9 210.16 115.84 211.43 116.87 210.9 115.37"/><polygon class="cls-3" points="224.84 107.56 226.19 106.69 224.58 106.35 224.11 104.74 223.33 106.09 221.03 105.6 222.94 107.57 222.35 109.16 224.07 108.05 225.4 109.13 224.84 107.56"/><rect class="cls-1" x="154.13" y="111.35" width=".64" height="33.91"/><rect class="cls-1" x="59.2" y="111.35" width=".64" height="33.91"/><path class="cls-1" d="M143.6,115.33l-.22,.92h.65l-.22-.92-.1-.53h-.01c-.03,.2-.06,.38-.1,.53m-.53,2.3h-.59l.9-3.44h.64l.91,3.44h-.59l-.21-.89h-.84l-.21,.89Zm-.67,0h-1.7v-3.44h.59v2.91h1.11v.52Zm-3.1,0h-1.69v-3.44h1.64v.52h-1.05v.92h.84v.52h-.84v.95h1.1v.52Zm-3.92-2.91v2.38h.34c.25,0,.45-.1,.59-.31,.14-.21,.21-.5,.21-.89s-.07-.67-.21-.88c-.14-.21-.34-.31-.59-.31h-.34Zm.36,2.91h-.95v-3.44h.95c.43,0,.77,.15,1.01,.45,.25,.3,.37,.72,.37,1.26s-.12,.96-.37,1.27c-.25,.3-.58,.46-1.01,.46Zm-4.55-1.74c0,.38,.07,.68,.21,.9,.14,.22,.33,.33,.57,.33s.43-.11,.57-.33c.14-.22,.21-.52,.21-.9s-.07-.66-.21-.87c-.14-.21-.33-.32-.57-.32s-.43,.11-.57,.32c-.14,.21-.21,.5-.21,.87Zm-.6,0c0-.52,.13-.94,.38-1.26,.25-.33,.59-.49,1.01-.49s.76,.16,1.01,.49c.25,.33,.38,.75,.38,1.27s-.13,.96-.38,1.3c-.25,.33-.59,.5-1.01,.5s-.76-.17-1.01-.5c-.25-.34-.37-.77-.37-1.3Zm-1.07,1.74h-.6l-.95-3.44h.63l.53,2.24,.08,.5h.02c.03-.2,.06-.37,.09-.5l.53-2.24h.62l-.95,3.44Zm-1.87,0h-.59v-3.44h.59v3.44Zm-1.79,0h-.59v-2.91h-.83v-.52h2.25v.52h-.83v2.91Zm-2.57-2.3l-.22,.92h.65l-.22-.92-.1-.53h-.01c-.03,.2-.06,.38-.1,.53Zm-.53,2.3h-.59l.9-3.44h.64l.91,3.44h-.59l-.21-.89h-.84l-.21,.89Zm-2.21-2.91v1.1h.31c.13,0,.24-.05,.33-.15,.09-.1,.13-.24,.13-.41,0-.21-.06-.37-.18-.46-.08-.05-.17-.08-.27-.08h-.32Zm0,2.91h-.59v-3.44h1c.16,0,.31,.04,.45,.11,.16,.08,.28,.2,.38,.36,.09,.16,.14,.35,.14,.56s-.05,.39-.14,.56c-.09,.17-.22,.3-.36,.38h0c.04,.06,.07,.12,.1,.19l.57,1.28h-.65l-.52-1.28h-.37v1.28Zm-1.79,0h-.59v-2.91h-.83v-.52h2.25v.52h-.83v2.91Zm-3.51-.28l.28-.5c.18,.19,.38,.29,.6,.29,.13,0,.23-.04,.31-.12,.08-.08,.12-.18,.12-.31,0-.08-.02-.16-.07-.23-.04-.07-.1-.13-.17-.19-.07-.05-.15-.11-.23-.16-.09-.05-.17-.11-.26-.17-.09-.06-.16-.13-.23-.21-.07-.07-.13-.17-.17-.28-.04-.11-.07-.23-.07-.37,0-.28,.09-.52,.28-.7,.18-.18,.43-.28,.75-.28,.29,0,.54,.08,.76,.23l-.21,.52c-.06-.05-.15-.1-.25-.14-.11-.04-.2-.06-.29-.06-.14,0-.25,.04-.32,.12-.08,.08-.12,.18-.12,.3,0,.2,.14,.38,.43,.54,.11,.06,.2,.12,.28,.16,.07,.05,.15,.12,.24,.2,.09,.09,.16,.18,.2,.3,.04,.11,.07,.24,.07,.38,0,.28-.09,.52-.26,.71-.17,.19-.42,.29-.74,.29-.35,0-.65-.11-.89-.33Zm-.42,.28h-.59v-3.44h.59v3.44Zm-2.87,0h-.56v-3.44h.62l.89,1.95c.04,.09,.09,.23,.15,.44l.02,.09h.02c-.02-.2-.03-.38-.03-.53v-1.94h.55v3.44h-.61l-.89-1.95c-.04-.1-.09-.25-.15-.44l-.02-.08h-.02c.02,.2,.03,.38,.03,.53v1.95Zm-1.18,0h-.59v-3.44h.59v3.44Zm-3.46,0h-.55l.22-3.44h.65l.46,1.67,.11,.52h.01c.05-.24,.08-.41,.11-.52l.46-1.67h.65l.22,3.44h-.55l-.12-1.91c0-.17,0-.32,0-.45v-.09h0c-.05,.23-.08,.42-.12,.55l-.37,1.3h-.58l-.37-1.3-.11-.55h-.02v.09s0,.02,0,.04c0,.02,0,.04,0,.08,0,.03,0,.06,0,.09,0,.08,0,.16,0,.24l-.12,1.91Zm-2.68-2.91v2.38h.34c.25,0,.45-.1,.59-.31,.14-.21,.21-.5,.21-.89s-.07-.67-.21-.88c-.14-.21-.34-.31-.59-.31h-.34Zm.36,2.91h-.95v-3.44h.95c.43,0,.77,.15,1.01,.45,.25,.3,.37,.72,.37,1.26s-.12,.96-.37,1.27c-.25,.3-.58,.46-1.01,.46Zm-2.61-2.3l-.22,.92h.65l-.22-.92-.1-.53h-.01c-.03,.2-.06,.38-.1,.53Zm-.53,2.3h-.59l.9-3.44h.64l.91,3.44h-.59l-.21-.89h-.84l-.21,.89Zm-3.79-1.74c0,.38,.07,.68,.21,.9,.14,.22,.33,.33,.57,.33s.43-.11,.57-.33c.14-.22,.21-.52,.21-.9s-.07-.66-.21-.87c-.14-.21-.33-.32-.57-.32s-.43,.11-.57,.32c-.14,.21-.21,.5-.21,.87Zm-.6,0c0-.52,.13-.94,.38-1.26,.25-.33,.59-.49,1.01-.49s.76,.16,1.01,.49c.25,.33,.38,.75,.38,1.27s-.13,.96-.38,1.3c-.25,.33-.59,.5-1.01,.5s-.76-.17-1.01-.5c-.25-.34-.37-.77-.37-1.3Zm-.89,1.74h-.59v-2.91h-.83v-.52h2.25v.52h-.83v2.91Zm-3.44,0h-.56v-3.44h.62l.89,1.95c.04,.09,.09,.23,.15,.44l.02,.09h.02c-.02-.2-.03-.38-.03-.53v-1.94h.55v3.44h-.61l-.89-1.95c-.04-.1-.09-.25-.15-.44l-.02-.08h-.02c.02,.2,.03,.38,.03,.53v1.95Zm-1,0h-1.69v-3.44h1.64v.52h-1.05v.92h.84v.52h-.84v.95h1.1v.52Zm-4.56,0h-.55l.22-3.44h.65l.46,1.67,.11,.52h.02c.04-.24,.08-.41,.11-.52l.46-1.67h.65l.22,3.44h-.55l-.12-1.91c0-.17,0-.32,0-.45v-.09h-.01c-.04,.23-.08,.42-.12,.55l-.37,1.3h-.58l-.37-1.3-.11-.55h-.02v.09s0,.02,0,.04c0,.02,0,.04,0,.08,0,.03,0,.06,0,.09,0,.08,0,.16,0,.24l-.12,1.91Zm-2.11-2.3l-.22,.92h.65l-.22-.92-.1-.53h-.01c-.03,.2-.06,.38-.1,.53Zm-.53,2.3h-.59l.9-3.44h.64l.91,3.44h-.59l-.21-.89h-.84l-.21,.89Zm-1.25,0h-.59v-2.91h-.83v-.52h2.25v.52h-.83v2.91Zm-3.03-2.91v1.1h.31c.13,0,.24-.05,.33-.15,.09-.1,.13-.24,.13-.41,0-.21-.06-.37-.18-.46-.08-.05-.17-.08-.27-.08h-.32Zm0,2.91h-.59v-3.44h1c.16,0,.31,.04,.45,.11,.16,.08,.28,.2,.38,.36,.09,.16,.14,.35,.14,.56s-.05,.39-.14,.56-.21,.3-.36,.38h0c.04,.06,.07,.12,.1,.19l.57,1.28h-.65l-.52-1.28h-.37v1.28Zm-2.25-2.3l-.22,.92h.65l-.22-.92-.1-.53h-.01c-.03,.2-.06,.38-.1,.53Zm-.53,2.3h-.59l.9-3.44h.64l.91,3.44h-.59l-.21-.89h-.84l-.21,.89Zm-1.95-2.91v1.21h.29c.16,0,.28-.05,.38-.16,.09-.11,.14-.26,.14-.44s-.05-.33-.14-.44c-.1-.11-.22-.16-.37-.16h-.3Zm0,2.91h-.59v-3.44h.98c.3,0,.54,.1,.73,.31,.19,.21,.29,.48,.29,.81s-.1,.6-.29,.81c-.19,.21-.43,.31-.73,.31h-.39v1.19Zm-1.04,0h-1.69v-3.44h1.64v.52h-1.05v.92h.84v.52h-.84v.95h1.1v.52Zm-3.92-2.91v2.38h.34c.25,0,.45-.1,.59-.31,.14-.21,.21-.5,.21-.89s-.07-.67-.21-.88c-.14-.21-.34-.31-.59-.31h-.34Zm.36,2.91h-.95v-3.44h.95c.43,0,.77,.15,1.01,.45,.25,.3,.37,.72,.37,1.26s-.12,.96-.37,1.27c-.25,.3-.58,.46-1.01,.46Z"/><path class="cls-1" d="M144.46,128.87h-3.91v-7.92h1.36v6.71h2.55v1.2Zm-4.94,0h-3.9v-7.92h3.77v1.2h-2.41v2.12h1.94v1.2h-1.94v2.19h2.54v1.2Zm-9.03-6.7v5.49h.78c.59,0,1.04-.24,1.36-.71,.32-.48,.48-1.16,.48-2.04s-.16-1.54-.49-2.02c-.32-.48-.78-.71-1.36-.71h-.78Zm.84,6.7h-2.2v-7.92h2.2c.99,0,1.77,.35,2.33,1.05,.57,.7,.86,1.67,.86,2.9s-.29,2.22-.86,2.92c-.57,.7-1.34,1.05-2.33,1.05Zm-10.17-5.31l-.51,2.13h1.51l-.5-2.13-.23-1.23h-.03c-.07,.47-.15,.88-.22,1.23Zm-1.22,5.31h-1.36l2.07-7.92h1.47l2.09,7.92h-1.36l-.49-2.04h-1.94l-.48,2.04Zm-2.32-8.44h-1.05l.68-1.53h1.34l-.97,1.53Zm.19,8.44h-1.36v-7.92h1.36v7.92Zm-5.75-6.7v2.54h.73c.3,0,.55-.12,.75-.36,.2-.24,.31-.55,.31-.94,0-.49-.14-.84-.42-1.06-.19-.13-.4-.19-.61-.19h-.75Zm0,6.7h-1.36v-7.92h2.3c.37,0,.72,.08,1.04,.25,.36,.18,.65,.45,.87,.82,.22,.37,.32,.8,.32,1.29s-.11,.91-.32,1.3c-.22,.39-.49,.68-.84,.88v.02c.08,.12,.16,.26,.23,.42l1.32,2.94h-1.49l-1.2-2.96h-.86v2.96Zm-7.44-4.02c0,.87,.16,1.56,.48,2.07,.32,.51,.76,.77,1.32,.77s.99-.25,1.31-.76c.32-.51,.48-1.2,.48-2.07s-.16-1.52-.47-2.01c-.32-.49-.75-.74-1.31-.74s-1,.25-1.32,.74c-.32,.49-.48,1.16-.48,2Zm-1.39,0c0-1.19,.29-2.16,.87-2.91,.58-.75,1.35-1.13,2.32-1.13s1.74,.38,2.32,1.13c.58,.75,.87,1.73,.87,2.92s-.29,2.22-.87,2.99c-.58,.77-1.35,1.15-2.32,1.15s-1.75-.38-2.33-1.15c-.57-.77-.86-1.77-.86-3Zm-5.06,3.38l.64-1.16c.41,.45,.87,.67,1.37,.67,.29,0,.52-.09,.7-.27,.18-.18,.27-.42,.27-.71,0-.19-.05-.37-.16-.54-.1-.16-.24-.31-.4-.43-.16-.12-.34-.25-.54-.37-.2-.12-.39-.26-.59-.4-.2-.14-.38-.3-.54-.47-.16-.17-.3-.38-.4-.64-.1-.25-.16-.54-.16-.85,0-.65,.21-1.19,.64-1.62,.42-.42,1-.64,1.72-.64,.66,0,1.25,.17,1.75,.52l-.49,1.2c-.14-.12-.33-.22-.58-.32-.25-.09-.46-.14-.66-.14-.32,0-.57,.09-.75,.27-.18,.18-.27,.41-.27,.7,0,.45,.33,.87,.98,1.25,.26,.14,.47,.27,.64,.38,.16,.11,.35,.27,.56,.46,.21,.2,.36,.43,.47,.69,.1,.26,.16,.55,.16,.87,0,.65-.2,1.2-.6,1.64-.4,.44-.97,.66-1.7,.66-.8,0-1.49-.26-2.05-.77Zm-4.78,.64h-1.28v-7.92h1.43l2.04,4.48c.09,.2,.2,.54,.35,1l.06,.2h.04c-.05-.47-.08-.87-.08-1.22v-4.47h1.27v7.92h-1.42l-2.04-4.49c-.1-.24-.21-.58-.35-1.01l-.06-.19h-.04c.05,.47,.08,.87,.08,1.22v4.48Zm-2.31,0h-3.9v-7.92h3.77v1.2h-2.41v2.12h1.94v1.2h-1.94v2.19h2.54v1.2Zm-7.16,0h-1.36v-7.92h3.67v1.2h-2.31v2.29h1.93v1.2h-1.93v3.22Zm-2.39,0h-3.9v-7.92h3.77v1.2h-2.41v2.12h1.94v1.2h-1.94v2.19h2.54v1.2Zm-9.03-6.7v5.49h.78c.59,0,1.04-.24,1.36-.71,.32-.48,.48-1.16,.48-2.04s-.16-1.54-.49-2.02c-.32-.48-.77-.71-1.35-.71h-.78Zm.84,6.7h-2.2v-7.92h2.2c.99,0,1.77,.35,2.33,1.05,.57,.7,.86,1.67,.86,2.9s-.29,2.22-.86,2.92c-.57,.7-1.34,1.05-2.33,1.05Z"/></g></svg>